<svg width="581" height="432" viewBox="0 0 581 432" fill="none" xmlns="http://www.w3.org/2000/svg">
<g clip-path="url(#clip0_505_2319)">
<path d="M300.917 359.927L317.947 355.416L312.978 370.771L317.947 386.082L300.917 381.614L283.838 386.082L288.855 370.771L283.838 355.416L300.917 359.927Z" fill="black" stroke="white" stroke-miterlimit="10"/>
</g>
<g clip-path="url(#clip1_505_2319)">
<path d="M120.897 284.223L151.353 299.142L120.897 314.181L104.236 341.502L87.5756 314.181L57.1198 299.142L87.5756 284.223L104.236 256.782L120.897 284.223Z" fill="black" stroke="white" stroke-miterlimit="10"/>
</g>
<path d="M546.256 322.334C544.433 325.305 541.031 327.466 536.105 328.809C531.178 330.152 524.784 330.66 517.081 330.361C501.678 329.764 481.164 325.946 456.96 319.286C408.561 305.968 345.512 281.313 279.29 248.474C213.069 215.634 156.24 180.841 117.892 151.14C98.7145 136.288 84.18 122.725 75.4013 111.33C71.0111 105.632 68.0781 100.498 66.7136 96.0352C65.3494 91.5729 65.567 87.8331 67.39 84.8619C69.2129 81.8906 72.6153 79.7301 77.5413 78.3871C82.4682 77.0439 88.8625 76.5359 96.5655 76.8346C111.968 77.432 132.482 81.2495 156.686 87.9096C205.085 101.228 268.135 125.883 334.356 158.722C400.577 191.561 457.407 226.355 495.755 256.055C514.932 270.908 529.466 284.471 538.245 295.865C542.635 301.564 545.568 306.697 546.933 311.16C548.297 315.623 548.079 319.363 546.256 322.334Z" stroke="black"/>
<path d="M526.682 354.236C524.859 357.208 521.457 359.368 516.531 360.711C511.604 362.054 505.21 362.562 497.507 362.264C482.104 361.666 461.59 357.849 437.386 351.189C388.987 337.871 325.937 313.216 259.716 280.376C193.495 247.537 136.665 212.743 98.3175 183.043C79.1403 168.19 64.6057 154.627 55.8271 143.233C51.4369 137.534 48.5039 132.401 47.1394 127.938C45.7751 123.476 45.9928 119.736 47.8158 116.764C49.6387 113.793 53.0411 111.633 57.9671 110.29C62.894 108.947 69.2883 108.438 76.9913 108.737C92.3942 109.335 112.908 113.152 137.112 119.812C185.511 133.13 248.561 157.785 314.782 190.625C381.003 223.464 437.832 258.258 476.18 287.958C495.358 302.811 509.892 316.374 518.671 327.768C523.061 333.466 525.994 338.6 527.358 343.063C528.723 347.525 528.505 351.265 526.682 354.236Z" stroke="black"/>
<path d="M507.108 386.14C505.285 389.111 501.883 391.271 496.957 392.614C492.03 393.957 485.635 394.465 477.932 394.167C462.529 393.569 442.016 389.752 417.812 383.092C369.413 369.774 306.363 345.119 240.142 312.279C173.921 279.44 117.091 244.646 78.7433 214.946C59.5661 200.093 45.0315 186.53 36.2529 175.136C31.8627 169.438 28.9297 164.304 27.5652 159.841C26.2009 155.379 26.4186 151.639 28.2415 148.668C30.0645 145.696 33.4669 143.536 38.3929 142.193C43.3198 140.85 49.7141 140.342 57.417 140.64C72.82 141.238 93.3338 145.055 117.537 151.715C165.936 165.033 228.986 189.688 295.208 222.528C361.429 255.367 418.258 290.161 456.606 319.861C475.783 334.714 490.318 348.277 499.097 359.671C503.487 365.369 506.42 370.503 507.784 374.966C509.149 379.428 508.931 383.168 507.108 386.14Z" stroke="black"/>
<ellipse cx="127.238" cy="74.5687" rx="14.9976" ry="13.4835" fill="#B9FF66"/>
<ellipse cx="407.354" cy="362.072" rx="9.67588" ry="8.69903" fill="#B9FF66"/>
<ellipse cx="78.8575" cy="39.7726" rx="22.7383" ry="20.4427" fill="black"/>
<path d="M296.058 335.844C289.958 337.731 282.987 333.993 280.563 327.511L242.828 227.471L264.878 220.646L302.65 320.823C305.075 327.236 302.12 333.958 296.058 335.844Z" fill="black"/>
<path d="M292.761 337.079C290.981 337.079 289.162 336.702 287.42 335.913C283.896 334.335 281.093 331.386 279.729 327.75L241.994 227.711C241.842 227.334 242.07 226.888 242.524 226.751L264.574 219.926C264.801 219.857 265.029 219.857 265.218 219.96C265.408 220.063 265.559 220.2 265.635 220.406L303.407 320.583C305.946 327.373 302.763 334.541 296.285 336.564C295.186 336.907 293.974 337.079 292.761 337.079ZM243.888 227.951L281.358 327.27C282.57 330.528 285.071 333.203 288.177 334.575C290.678 335.673 293.368 335.878 295.792 335.124C301.399 333.375 304.127 327.065 301.854 321.063L264.347 221.606L243.888 227.951Z" fill="black"/>
<path d="M260.972 134.29L189.633 180.349L161.862 206.448L150.951 223.904L150.913 224.041C148.754 227.059 150.004 234.021 154.058 241.12C158.036 248.116 163.643 252.986 167.583 253.261L167.469 253.329L188.42 255.387L227.633 249.728L310.868 222.772L414.335 238.822L415.055 238.857C389.065 234.467 353.983 203.018 328.485 158.537C303.026 114.09 294.918 70.158 306.095 48.4834H306.057L261.541 133.193L260.972 134.29Z" fill="#B9FF66"/>
<path d="M432.25 236.921C457.821 224.9 452.877 170.403 421.206 115.199C389.536 59.9955 343.133 24.9888 317.562 37.0098C291.991 49.0307 296.936 103.527 328.606 158.731C360.276 213.935 406.68 248.942 432.25 236.921Z" fill="white"/>
<path d="M421.005 240.057C409.866 240.057 396.455 234.433 382.02 223.493C362.357 208.608 343.073 185.665 327.729 158.846C304.505 118.24 294.92 76.6057 303.33 52.7704C306.134 44.8139 310.832 39.2581 317.235 36.2744C329.964 30.3756 347.885 35.3827 367.737 50.404C387.4 65.2882 406.684 88.2318 422.028 115.051C445.29 155.656 454.875 197.291 446.426 221.126C443.623 229.083 438.925 234.639 432.522 237.622C429.075 239.268 425.21 240.057 421.005 240.057ZM328.828 35.3827C324.926 35.3827 321.289 36.1029 318.03 37.6462C312.006 40.4241 307.612 45.7056 304.96 53.2848C296.663 76.7771 306.21 117.966 329.245 158.229C360.614 212.998 406.608 248.048 431.802 236.353C437.826 233.575 442.221 228.294 444.873 220.715C453.17 197.222 443.623 156.034 420.588 115.771C393.272 68.1004 354.931 35.3827 328.828 35.3827Z" fill="black"/>
<path d="M421.005 240.057C409.866 240.057 396.455 234.433 382.02 223.493C362.357 208.608 343.073 185.665 327.729 158.846C304.505 118.24 294.92 76.6058 303.33 52.7705C306.134 44.814 310.832 39.2582 317.235 36.2745C325.759 32.2962 336.898 33.2908 349.438 39.121C361.448 44.7111 374.443 54.6225 387.097 67.7576C387.4 68.0662 387.362 68.5464 387.021 68.8207C386.68 69.0951 386.15 69.0608 385.847 68.7521C360.16 42.0704 334.17 30.1356 318.03 37.6463C312.006 40.4242 307.612 45.7057 304.96 53.2849C296.663 76.7772 306.21 117.966 329.245 158.229C356.523 205.865 394.901 238.617 420.967 238.617C424.869 238.617 428.506 237.897 431.765 236.353C437.788 233.575 442.183 228.294 444.835 220.715C453.132 197.222 443.585 156.034 420.55 115.771C413.693 103.768 405.964 92.4845 397.667 82.2302C397.402 81.8873 397.478 81.4071 397.856 81.167C398.235 80.927 398.766 80.9956 399.031 81.3385C407.404 91.6614 415.133 103.013 422.066 115.085C445.29 155.656 454.875 197.291 446.426 221.126C443.623 229.083 438.925 234.639 432.522 237.622C429.075 239.268 425.21 240.057 421.005 240.057Z" fill="black"/>
<path d="M374.231 166.647C380.155 163.863 379.015 151.248 371.686 138.473C364.357 125.697 353.613 117.598 347.689 120.383C341.765 123.168 342.904 135.782 350.234 148.557C357.563 161.333 368.307 169.432 374.231 166.647Z" fill="#B9FF66"/>
<path d="M371.638 167.969C365.121 167.969 356.028 160.355 349.474 148.866C344.019 139.332 341.783 129.524 343.791 123.865C344.511 121.876 345.686 120.47 347.315 119.715C353.755 116.731 364.78 124.859 372.433 138.2C377.889 147.734 380.124 157.543 378.116 163.202C377.396 165.191 376.222 166.597 374.593 167.351C373.683 167.763 372.698 167.969 371.638 167.969ZM350.27 120.572C349.474 120.572 348.716 120.71 348.072 121.018C346.822 121.601 345.913 122.699 345.345 124.311C343.488 129.592 345.648 138.989 350.914 148.18C357.885 160.355 368.379 168.552 373.797 166.014C375.047 165.431 375.957 164.333 376.525 162.721C378.381 157.406 376.184 148.043 370.956 138.852C364.818 128.186 356.029 120.572 350.27 120.572Z" fill="#B9FF66"/>
<path d="M415.246 227.265C405.471 227.265 393.726 222.326 381.072 212.758C363.872 199.726 346.975 179.629 333.563 156.171C313.218 120.641 304.845 84.1848 312.195 63.2989C314.658 56.3027 318.787 51.4327 324.432 48.792C337.39 42.7903 356.446 49.718 376.753 67.7916C377.094 68.1003 377.094 68.5461 376.753 68.8547C376.412 69.1634 375.92 69.1634 375.579 68.8547C355.802 51.2612 337.427 44.4022 325.19 50.1295C319.962 52.5645 316.135 57.1257 313.786 63.7447C306.55 84.2533 314.885 120.263 335.041 155.485C358.871 197.154 392.4 225.756 415.208 225.756C418.617 225.756 421.762 225.104 424.641 223.801C429.87 221.366 433.696 216.805 436.045 210.186C443.281 189.677 434.946 153.667 414.791 118.446C408.691 107.814 401.872 97.8343 394.522 88.8146C394.257 88.4717 394.332 87.9915 394.711 87.7515C395.09 87.5114 395.621 87.58 395.886 87.9229C403.311 97.0455 410.169 107.06 416.306 117.76C436.651 153.29 445.024 189.746 437.674 210.632C435.212 217.628 431.082 222.498 425.437 225.139C422.33 226.545 418.921 227.265 415.246 227.265Z" fill="black"/>
<path d="M188.46 256.107C188.422 256.107 188.384 256.107 188.384 256.107L167.433 254.05C167.319 254.05 167.205 254.015 167.092 253.947C162.773 253.33 157.317 248.391 153.339 241.463C149.096 234.158 147.846 227.025 150.157 223.664L150.195 223.561L161.106 206.071C161.144 206.002 161.182 205.968 161.219 205.933L188.99 179.835C189.028 179.8 189.066 179.766 189.104 179.732L260.254 133.776L305.263 48.1406C305.376 47.9692 305.528 47.832 305.755 47.7634C305.982 47.6948 306.21 47.6948 306.399 47.7977C306.816 47.9692 307.005 48.415 306.816 48.7922C295.412 70.9127 304.429 114.879 329.207 158.16C354.022 201.509 388.612 233.61 415.246 238.034C415.663 238.102 415.966 238.445 415.928 238.857C415.89 239.234 415.511 239.509 415.095 239.543L414.375 239.509C414.337 239.509 414.299 239.509 414.261 239.509L310.983 223.493L227.937 250.38C227.899 250.38 227.823 250.414 227.785 250.414L188.573 256.073C188.535 256.107 188.498 256.107 188.46 256.107ZM168.039 252.609L188.46 254.598L227.482 248.94L310.68 222.018C310.832 221.984 310.946 221.949 311.097 221.984L404.07 236.388C378.951 226.408 349.589 196.948 327.805 158.88C306.172 121.087 296.511 82.7103 301.815 58.4635L261.731 134.599C261.656 134.702 261.58 134.805 261.466 134.874L190.202 180.932L162.545 206.894L151.634 224.384C151.634 224.419 151.596 224.453 151.596 224.453C149.626 227.231 150.952 234.09 154.779 240.777C158.53 247.328 163.947 252.266 167.66 252.506C167.812 252.506 167.925 252.541 168.039 252.609Z" fill="black"/>
<path d="M261.087 134.016L306.058 48.4492H306.096C294.92 70.1239 303.065 114.056 328.487 158.503C353.984 203.018 389.067 234.467 415.132 238.788L414.412 238.754L311.097 222.738L308.71 222.361C296.7 220.44 280.674 206.311 269.195 186.145C257.412 165.465 255.328 144.853 260.557 135.045L261.087 134.016Z" fill="white"/>
<path d="M415.132 239.543C415.094 239.543 415.132 239.543 415.132 239.543L414.374 239.508C414.336 239.508 414.298 239.508 414.26 239.508L310.945 223.493L308.558 223.115C295.866 221.092 279.764 206.379 268.437 186.522C255.593 163.956 254.949 143.859 259.798 134.736L260.367 133.707L305.338 48.1748C305.451 48.0033 305.603 47.8661 305.83 47.7976C306.057 47.729 306.285 47.729 306.474 47.8319C306.891 48.0033 307.08 48.4492 306.891 48.8264C295.487 70.9469 304.504 114.914 329.282 158.194C354.097 201.544 388.687 233.644 415.321 238.068C415.738 238.137 416.041 238.48 416.003 238.891C415.889 239.234 415.548 239.543 415.132 239.543ZM301.738 58.4634L261.844 134.359L261.276 135.388C256.464 144.442 257.866 164.676 269.914 185.802C281.015 205.282 296.662 219.686 308.861 221.606L311.248 221.984L404.031 236.388C378.913 226.408 349.551 196.948 327.766 158.88C306.133 121.087 296.472 82.7102 301.738 58.4634Z" fill="black"/>
<path d="M187.322 256.005C187.285 256.005 187.247 256.005 187.247 256.005L167.394 254.084C167.281 254.084 167.167 254.05 167.053 253.981C162.734 253.364 157.279 248.425 153.301 241.498C149.095 234.159 147.845 227.025 150.156 223.664L150.194 223.561L161.105 206.071C161.333 205.693 161.825 205.591 162.242 205.796C162.659 206.002 162.772 206.448 162.545 206.825L151.634 224.384C151.634 224.419 151.596 224.453 151.596 224.453C149.626 227.231 150.952 234.09 154.778 240.778C158.529 247.328 163.947 252.266 167.66 252.507C167.773 252.507 167.925 252.541 168.001 252.609L187.398 254.496C187.853 254.53 188.194 254.907 188.118 255.319C188.08 255.696 187.739 256.005 187.322 256.005Z" fill="black"/>
<path d="M188.648 255.25C182.207 254.838 173.19 246.573 166.636 235.153C159.703 223.047 158.074 210.529 162.317 206.071L150.989 223.904L150.913 224.041C148.754 227.059 150.004 234.021 154.058 241.12C158.036 248.117 163.643 252.987 167.583 253.261L167.469 253.33L188.648 255.25Z" fill="white"/>
<path d="M188.648 256.004C188.611 256.004 188.611 256.004 188.573 256.004C188.421 256.004 188.232 255.97 188.08 255.97L167.394 254.084C167.281 254.084 167.167 254.05 167.053 253.981C162.734 253.364 157.279 248.425 153.301 241.498C149.095 234.158 147.845 227.025 150.156 223.664L150.194 223.561L160.158 207.854C160.537 206.962 161.029 206.173 161.636 205.522C161.901 205.213 162.393 205.179 162.734 205.385C163.075 205.625 163.189 206.036 162.962 206.379L161.56 208.54C159.325 213.993 161.522 224.693 167.281 234.707C173.532 245.647 182.056 253.638 188.156 254.358L188.611 254.393C189.065 254.427 189.406 254.804 189.368 255.216C189.406 255.696 189.065 256.004 188.648 256.004ZM168.001 252.609L182.473 253.947C176.904 250.723 170.766 244.07 165.879 235.496C161.143 227.231 158.794 218.657 159.173 212.484L151.634 224.384C151.634 224.418 151.596 224.453 151.596 224.453C149.626 227.231 150.952 234.09 154.778 240.777C158.529 247.328 163.947 252.266 167.66 252.506C167.773 252.506 167.925 252.541 168.001 252.609Z" fill="black"/>
<path d="M226.23 249.866L227.897 249.557C218.88 251.272 204.635 238.925 194.595 221.4C184.328 203.498 182.396 185.63 189.67 180.349L188.723 181.206L162.392 205.967C158.073 210.357 159.664 222.944 166.635 235.119C173.341 246.848 182.85 255.216 189.329 255.181L226.23 249.866Z" fill="black"/>
<path d="M189.292 255.97C182.397 255.97 172.811 247.568 165.878 235.496C158.832 223.15 157.051 210.255 161.749 205.488L187.587 181.206C188.042 180.658 188.572 180.178 189.14 179.766C189.481 179.526 189.974 179.56 190.277 179.835C190.58 180.143 190.58 180.589 190.277 180.863L188.799 182.27C183.533 188.648 186.147 204.973 195.354 221.058C205.28 238.411 219.146 250.311 227.633 248.871L227.746 248.837C228.201 248.768 228.618 249.008 228.731 249.42C228.807 249.831 228.542 250.209 228.087 250.311C228.049 250.311 228.012 250.311 227.974 250.346L226.42 250.62H226.382L189.481 255.936C189.406 255.936 189.33 255.97 189.292 255.97ZM185.39 185.459L162.999 206.516C158.832 210.769 160.726 223.184 167.394 234.81C173.91 246.196 183.117 254.427 189.292 254.461L221.874 249.763C213.084 246.951 202.249 236.353 193.876 221.778C185.92 207.888 182.851 193.759 185.39 185.459Z" fill="black"/>
<path d="M347.694 120.366C341.746 123.11 342.618 135.833 350.195 148.523C362.887 169.751 373.002 167.248 374.177 166.871C374.215 166.871 374.215 166.905 374.177 166.905L352.392 182.784C345.99 174.656 339.89 165.602 334.283 155.828C328.941 146.465 324.432 137.137 320.871 128.083L347.694 120.366Z" fill="black"/>
<path d="M352.392 183.538C352.354 183.538 352.317 183.538 352.279 183.538C352.051 183.504 351.862 183.401 351.71 183.23C345.156 174.896 339.056 165.773 333.563 156.205C328.297 147.014 323.75 137.651 320.113 128.391C320.038 128.186 320.038 127.98 320.151 127.808C320.265 127.637 320.416 127.5 320.644 127.431L347.467 119.715C347.884 119.612 348.339 119.783 348.49 120.161C348.642 120.538 348.49 120.949 348.111 121.121C346.823 121.704 345.876 122.87 345.308 124.585C343.451 129.969 345.724 139.503 350.991 148.248C363.379 168.963 372.927 166.596 373.95 166.253C374.328 166.116 374.783 166.288 374.972 166.596C375.162 166.905 375.086 167.351 374.783 167.591L352.923 183.367C352.771 183.47 352.582 183.538 352.392 183.538ZM321.97 128.563C325.569 137.514 329.964 146.568 335.04 155.485C340.345 164.744 346.255 173.558 352.582 181.686L371.487 167.9C367.168 167.728 359.022 164.813 349.475 148.866C343.944 139.64 341.671 129.9 343.679 124.036C343.944 123.281 344.247 122.63 344.626 122.012L321.97 128.563Z" fill="black"/>
<path d="M459.783 71.441C477.103 63.2078 483.802 43.8781 474.746 28.2668C465.689 12.6555 444.307 6.67444 426.987 14.9076C409.668 23.1409 402.969 42.4706 412.025 58.0819C421.081 73.6931 442.463 79.6742 459.783 71.441Z" fill="black"/>
<path d="M427.254 36.103C428.921 34.0452 431.384 32.7763 434.187 32.502C436.309 32.2962 438.279 32.7077 440.136 33.7366C441.083 34.251 441.916 34.9026 442.712 35.6914C443.28 34.7655 443.962 33.9424 444.758 33.2565C446.311 31.8846 448.167 31.0959 450.251 30.8901C453.055 30.6157 455.782 31.3702 457.904 33.0507C459.988 34.6969 461.314 37.0975 461.655 39.8069C461.996 42.5848 461.162 45.2598 459.041 48.2092C457.146 50.85 454.267 53.5936 450.933 56.8173C449.796 57.9148 448.508 59.1494 447.182 60.4526C446.841 60.7956 446.349 61.0357 445.818 61.07C445.288 61.1385 444.795 61.0014 444.341 60.727C442.712 59.6981 441.158 58.7379 439.795 57.9148C435.779 55.4455 432.293 53.3192 429.793 51.1243C426.989 48.6894 425.549 46.2201 425.208 43.4422C424.905 40.7328 425.625 38.1264 427.254 36.103Z" fill="white"/>
<path d="M558.043 73.188C570.723 61.7101 570.723 43.1009 558.043 31.6231C545.364 20.1453 524.806 20.1453 512.126 31.6231C499.447 43.1009 499.447 61.7101 512.126 73.188C524.806 84.6658 545.364 84.6658 558.043 73.188Z" fill="#B9FF66"/>
<path d="M535.079 82.5392C516.742 82.5392 501.777 69.0269 501.777 52.3936C501.777 35.7947 516.704 22.248 535.079 22.248C553.454 22.248 568.381 35.7604 568.381 52.3936C568.381 68.9926 553.454 82.5392 535.079 82.5392ZM535.079 23.757C517.652 23.757 503.444 36.5835 503.444 52.3936C503.444 68.1695 517.614 81.0302 535.079 81.0302C552.507 81.0302 566.714 68.2038 566.714 52.3936C566.714 36.6178 552.545 23.757 535.079 23.757Z" fill="#B9FF66"/>
<path d="M543.867 55.3085C542.048 55.3085 540.457 56.0973 539.396 57.3319L528.447 53.4565C528.447 53.3194 528.485 53.2165 528.485 53.0793C528.485 52.8392 528.447 52.5992 528.409 52.3591L539.624 47.6606C540.646 48.7238 542.162 49.4097 543.867 49.444C546.973 49.444 549.55 47.1462 549.55 44.2997C549.55 41.4532 547.011 39.1211 543.867 39.1211C540.76 39.1211 538.184 41.4189 538.184 44.2654C538.184 44.5055 538.222 44.7455 538.26 44.9856L527.045 49.6841C526.022 48.6209 524.507 47.935 522.802 47.9007C519.695 47.9007 517.119 50.1985 517.119 53.045C517.119 55.8915 519.658 58.2236 522.802 58.2236C524.621 58.2236 526.212 57.4348 527.273 56.2002L538.222 60.0755C538.222 60.2127 538.184 60.3156 538.184 60.4528C538.184 63.2993 540.722 65.6314 543.867 65.6314C546.973 65.6314 549.55 63.3336 549.55 60.4871C549.512 57.6406 546.973 55.3428 543.867 55.3085Z" fill="black"/>
<path d="M544.297 166.344C559.166 157.002 562.901 138.581 552.641 125.2C542.38 111.818 522.009 108.544 507.141 117.886C492.272 127.228 488.537 145.649 498.797 159.03C509.058 172.412 529.429 175.686 544.297 166.344Z" fill="black"/>
<path d="M517.538 156.171L512.764 132.747C512.537 131.547 513.749 130.552 515.037 130.861L543.262 138.097C544.702 138.474 545.043 140.155 543.868 140.978L520.379 157.165C519.356 157.92 517.803 157.405 517.538 156.171Z" fill="white"/>
<path d="M525.399 262.292C543.76 254.201 551.443 234.251 542.559 217.732C533.676 201.213 511.59 194.381 493.228 202.473C474.867 210.564 467.184 230.515 476.068 247.033C484.951 263.552 507.038 270.384 525.399 262.292Z" fill="#B9FF66"/>
<path d="M509.126 266.465C505.186 266.465 501.17 265.916 497.268 264.716C487.721 261.835 479.992 255.799 475.521 247.637C471.051 239.509 470.369 230.283 473.589 221.641C480.257 203.842 501.701 194.136 521.439 200.069C530.987 202.95 538.715 208.986 543.186 217.148C547.657 225.276 548.338 234.502 545.118 243.144C539.738 257.411 524.925 266.465 509.126 266.465ZM509.505 199.863C494.389 199.863 480.219 208.506 475.105 222.155C472.036 230.42 472.68 239.234 476.961 246.985C481.242 254.77 488.63 260.566 497.76 263.31C516.628 268.968 537.124 259.709 543.489 242.698C546.558 234.433 545.914 225.619 541.633 217.868C537.352 210.083 529.964 204.287 520.833 201.544C517.082 200.378 513.256 199.863 509.505 199.863Z" fill="black"/>
<path d="M528.147 226.991C527.768 235.325 512.197 254.804 508.484 259.366C508.105 259.846 507.309 259.811 506.968 259.297C504.619 255.868 496.853 244.344 492.799 235.016C491.17 231.312 490.147 227.951 490.261 225.585C490.677 216.119 499.505 208.746 509.961 209.123C520.418 209.569 528.563 217.525 528.147 226.991Z" fill="black"/>
<path d="M515.332 231.864C518.72 228.797 518.72 223.824 515.332 220.757C511.944 217.69 506.451 217.69 503.062 220.757C499.674 223.824 499.674 228.797 503.062 231.864C506.451 234.931 511.944 234.931 515.332 231.864Z" fill="#B9FF66"/>
<defs>
<clipPath id="clip0_505_2319">
<rect width="34.8332" height="31.3165" fill="white" transform="translate(283.502 355.112)"/>
</clipPath>
<clipPath id="clip1_505_2319">
<rect width="64.7028" height="64.7028" fill="white" transform="matrix(0.743648 0.668571 -0.743648 0.668571 104.236 255.943)"/>
</clipPath>
</defs>
</svg>
